# xmcd
#
# Track frame offsets:
#	150
#	9603
#	46622
#	62986
#	67312
#	123170
#	191120
#	286953
#	310111
#
# Disc length: 4713 seconds
#
# Revision: 1
# Processed by: cddbd v1.5.2PL0 Copyright (c) Steve Scherf et al.
# Submitted via: audiograbber 1.83.01
#
DISCID=81126709
DTITLE=Grateful Dead - 78-02-03A Dane County Coliseum, Madison WI78-02-03A Dane
DTITLE=County Coliseum, Madison WI
DYEAR=1900
DGENRE=
TTITLE0=Tuning 2
TTITLE1=Good Lovin'
TTITLE2=Ship Of Fools
TTITLE3=Tuning 2
TTITLE4=Estimated Prophet
TTITLE5=Eyes Of The World
TTITLE6=Playing In The Band
TTITLE7=The Wheel
TTITLE8=Playing In The Band
EXTD=
EXTT0=
EXTT1=
EXTT2=
EXTT3=
EXTT4=
EXTT5=
EXTT6=
EXTT7=
EXTT8=
PLAYORDER=
